<?xml version="1.0" standalone="no"?>
<!DOCTYPE svg PUBLIC "-//W3C//DTD SVG 20010904//EN"
 "http://www.w3.org/TR/2001/REC-SVG-20010904/DTD/svg10.dtd">
<svg version="1.0" xmlns="http://www.w3.org/2000/svg"
 width="300.000000pt" height="300.000000pt" viewBox="0 0 300.000000 300.000000"
 preserveAspectRatio="xMidYMid meet">
<metadata>
Created by potrace 1.10, written by Peter Selinger 2001-2011
</metadata>
<g transform="translate(0.000000,300.000000) scale(0.100000,-0.100000)"
fill="#000000" stroke="none">
<path d="M1505 2253 c-77 -8 -191 -34 -250 -59 -33 -14 -68 -28 -77 -31 -10
-3 -18 -9 -18 -14 0 -5 -5 -9 -11 -9 -15 0 -136 -96 -175 -140 -98 -107 -114
-127 -114 -140 0 -5 -13 -32 -29 -59 -71 -120 -124 -390 -87 -446 14 -22 19
-23 47 -13 18 6 87 44 154 84 67 41 128 74 134 74 6 0 11 4 11 8 0 5 23 19 50
32 28 13 50 26 50 29 0 4 25 17 55 31 30 14 55 28 55 33 0 4 5 7 12 7 6 0 25
11 42 23 17 13 65 41 106 63 41 21 77 42 80 45 3 3 36 23 73 45 37 21 89 51
115 66 26 15 71 40 100 55 28 15 52 31 52 35 0 4 9 8 19 8 10 0 21 6 24 14 3
7 28 22 56 31 27 10 48 22 46 26 -3 4 2 9 10 13 22 8 18 40 -7 63 -33 30 -136
78 -199 93 -30 7 -63 16 -74 20 -11 4 -54 8 -95 9 -41 1 -84 3 -95 5 -11 2
-38 1 -60 -1z m283 -54 c113 -29 297 -119 242 -119 -28 0 -180 -87 -992 -566
-153 -90 -279 -164 -280 -164 -9 0 12 195 27 250 69 262 252 472 497 569 154
62 340 73 506 30z"/>
<path d="M1535 2061 c-4 -21 -15 -33 -38 -41 l-32 -12 31 -15 c20 -10 36 -27
42 -47 l9 -31 13 33 c8 21 23 37 43 45 l31 13 -31 13 c-20 8 -36 24 -42 42
-13 37 -18 36 -26 0z"/>
<path d="M1739 2071 c-14 -15 -14 -17 2 -32 15 -15 18 -15 32 1 14 17 14 20
-1 33 -15 13 -19 13 -33 -2z"/>
<path d="M1230 2015 c-20 -25 -8 -50 25 -50 21 0 31 5 33 18 4 21 -14 47 -33
47 -7 0 -18 -7 -25 -15z"/>
<path d="M1318 1863 c-55 -34 -70 -54 -48 -68 9 -5 102 40 137 67 16 13 5 38
-16 37 -9 0 -42 -17 -73 -36z"/>
<path d="M1014 1676 c-74 -43 -89 -56 -89 -76 0 -39 26 -35 114 16 90 52 104
65 95 87 -11 30 -31 25 -120 -27z"/>
<path d="M2385 2244 c-52 -6 -165 -35 -165 -43 0 -4 -15 -12 -33 -19 -33 -12
-95 -67 -86 -77 3 -2 45 16 95 41 108 55 218 73 349 58 l80 -9 7 -40 c12 -66
9 -207 -6 -260 -20 -78 -64 -159 -118 -220 -43 -47 -47 -55 -28 -55 32 0 106
84 144 163 45 96 60 186 52 301 -7 101 -23 135 -70 147 -37 10 -171 18 -221
13z"/>
<path d="M2235 2125 c-77 -16 -138 -42 -131 -54 4 -5 1 -13 -4 -16 -25 -15
-70 -90 -70 -114 0 -26 0 -26 27 9 52 67 112 119 177 150 36 17 66 33 66 36 0
2 -1 4 -2 3 -2 0 -30 -6 -63 -14z"/>
<path d="M2250 2026 c-115 -40 -218 -105 -204 -128 3 -5 0 -23 -6 -39 -7 -16
-10 -32 -7 -35 3 -3 36 25 74 63 37 37 96 84 131 103 117 65 120 75 12 36z"/>
<path d="M2203 1901 c-112 -60 -155 -89 -148 -102 4 -5 15 -9 27 -9 17 0 19
-4 14 -26 -9 -35 17 -74 49 -74 16 0 25 -6 25 -15 0 -31 22 -12 94 85 41 55
71 100 67 100 -5 0 -14 -7 -22 -16 -19 -23 -180 -136 -186 -130 -3 2 1 22 7
42 14 42 83 121 144 166 57 41 33 34 -71 -21z"/>
<path d="M2400 1873 c-24 -32 -82 -97 -129 -145 -74 -77 -82 -88 -60 -88 14 0
30 -5 37 -12 14 -14 17 -11 96 107 56 84 110 184 103 191 -2 3 -24 -21 -47
-53z"/>
<path d="M1873 1873 c-25 -27 -57 -73 -71 -103 -21 -48 -24 -66 -20 -140 5
-102 26 -149 94 -209 98 -86 240 -94 354 -18 27 17 56 44 64 58 14 24 14 28
-3 43 -10 9 -47 21 -82 27 -163 25 -252 135 -235 290 13 109 -26 128 -101 52z
m70 -15 c-30 -87 5 -215 79 -284 59 -56 114 -78 196 -79 l74 0 -34 -28 c-83
-70 -206 -96 -293 -63 -134 52 -191 226 -119 368 24 48 89 128 104 128 4 0 1
-19 -7 -42z"/>
<path d="M2506 1807 c-25 -51 -68 -121 -96 -155 -54 -68 -47 -79 19 -31 30 21
51 49 71 92 28 60 64 177 56 184 -2 2 -24 -38 -50 -90z"/>
<path d="M2416 1761 c-20 -27 -64 -75 -97 -106 -34 -31 -59 -58 -57 -61 3 -2
18 0 33 6 16 6 34 9 41 6 7 -3 19 3 27 12 23 26 103 192 92 192 -2 0 -20 -22
-39 -49z"/>
<path d="M1520 1684 c-91 -53 -183 -106 -205 -119 -22 -12 -85 -48 -140 -80
-55 -32 -129 -74 -165 -95 -300 -170 -330 -193 -330 -253 0 -43 38 -84 86 -93
l34 -6 -57 -39 c-91 -61 -106 -112 -52 -174 18 -20 30 -37 28 -39 -2 -2 -60
-37 -129 -77 -152 -90 -162 -97 -184 -131 -16 -25 -16 -29 -1 -61 9 -20 29
-40 46 -47 36 -15 44 -11 239 105 118 70 147 83 169 78 29 -8 66 -8 96 0 17 4
185 104 435 258 8 5 96 58 195 117 394 237 394 237 357 274 -23 23 -84 36
-164 34 l-57 -1 20 31 c10 17 19 40 19 51 0 34 -67 83 -114 83 -32 0 -33 20
-3 48 13 12 43 60 67 107 42 83 43 85 25 105 -10 11 -25 20 -34 20 -9 0 -90
-43 -181 -96z m185 34 c-14 -24 -39 -68 -56 -98 -29 -52 -39 -59 -177 -139
-81 -47 -269 -156 -418 -243 -149 -87 -279 -158 -289 -158 -44 0 -70 57 -42
92 6 9 228 141 492 293 264 152 484 281 490 286 23 23 24 5 0 -33z m-31 -258
c13 0 31 -12 44 -29 l21 -29 -177 -103 c-97 -56 -318 -185 -491 -286 -333
-196 -348 -202 -373 -148 -8 17 -8 32 -1 47 12 27 921 561 941 553 8 -3 24 -5
36 -5z m214 -168 l54 -7 -279 -167 c-153 -92 -379 -228 -502 -302 -228 -138
-253 -148 -305 -125 -23 11 -40 3 -195 -90 -93 -55 -178 -101 -188 -101 -26 0
-43 19 -43 47 0 26 4 29 252 171 109 63 188 102 205 102 19 0 167 81 438 240
452 264 417 249 563 232z"/>
<path d="M2357 1446 c-37 -35 -80 -69 -95 -77 -15 -8 -38 -21 -52 -30 -97 -64
-157 -99 -167 -99 -7 0 -13 -4 -13 -10 0 -5 -5 -10 -12 -10 -6 0 -19 -6 -27
-14 -9 -7 -41 -27 -71 -43 -30 -16 -81 -46 -112 -66 -31 -20 -62 -37 -68 -37
-5 0 -10 -4 -10 -10 0 -5 -7 -10 -15 -10 -8 0 -15 -4 -15 -10 0 -5 -6 -10 -13
-10 -7 0 -35 -14 -63 -32 -27 -18 -65 -41 -84 -51 -19 -11 -37 -22 -40 -26 -3
-3 -18 -13 -35 -21 -16 -8 -49 -27 -71 -42 -23 -16 -44 -28 -47 -28 -4 0 -26
-13 -50 -30 -25 -16 -49 -30 -54 -30 -13 0 -83 -68 -83 -80 0 -31 163 -96 296
-119 119 -21 281 -9 419 31 56 17 196 91 259 137 29 21 74 63 100 92 53 58
146 192 146 208 0 6 9 27 20 48 47 92 81 300 64 390 -7 35 -8 36 -15 13 -4
-14 -7 -55 -8 -92 -3 -194 -94 -411 -235 -556 -127 -133 -321 -231 -488 -247
-35 -4 -78 -8 -96 -11 -86 -11 -279 28 -400 82 l-55 24 579 346 c325 194 597
363 619 385 42 40 82 99 68 99 -4 -1 -39 -29 -76 -64z"/>
<path d="M2270 1242 c0 -7 -9 -16 -19 -20 -19 -7 -19 -8 2 -27 l22 -20 22 23
c12 12 17 22 11 22 -6 0 -17 8 -24 18 -9 11 -13 12 -14 4z"/>
<path d="M2102 1143 c-7 -22 -19 -34 -36 -39 -14 -3 -26 -10 -26 -14 0 -4 12
-11 26 -14 17 -5 29 -17 36 -39 l12 -32 13 32 c8 21 22 35 38 39 14 3 25 10
25 14 0 4 -11 11 -25 14 -16 4 -30 18 -38 39 l-13 32 -12 -32z"/>
<path d="M482 1070 c-45 -27 -57 -63 -35 -101 30 -50 80 -55 126 -11 34 33 35
68 0 104 -32 33 -47 35 -91 8z m78 -35 c17 -21 8 -47 -22 -65 -32 -18 -61 -6
-66 27 -6 43 60 72 88 38z"/>
<path d="M1872 998 c-19 -19 -14 -56 8 -63 43 -14 69 44 31 65 -24 13 -24 13
-39 -2z"/>
<path d="M1591 817 c-101 -62 -189 -120 -195 -129 -8 -14 -7 -22 6 -34 16 -16
29 -10 213 100 165 99 195 121 195 140 0 19 -19 39 -33 36 -1 -1 -85 -51 -186
-113z"/>
<path d="M484 847 c-49 -27 -57 -75 -19 -112 32 -33 68 -32 94 1 27 35 27 66
-1 91 -31 27 -51 33 -74 20z m54 -39 c32 -32 -8 -80 -48 -58 -34 18 -19 70 20
70 9 0 21 -5 28 -12z"/>
<path d="M1800 759 c-116 -70 -136 -93 -105 -119 13 -11 34 -1 136 60 66 39
123 78 126 86 6 16 -14 44 -31 43 -6 0 -63 -32 -126 -70z"/>
</g>
</svg>
