<svg width="1833" height="1833" viewBox="0 0 1833 1833" fill="none" xmlns="http://www.w3.org/2000/svg">
<path d="M916.5 0C410.334 0 0 410.334 0 916.5C0 1422.67 410.334 1833 916.5 1833C1422.67 1833 1833 1422.67 1833 916.5C1833 410.334 1422.67 0 916.5 0ZM342.049 1155.63C348.858 1158.45 355.751 1161.36 362.673 1164.3C362.475 1170.97 362.277 1177.66 362.136 1184.44C354.96 1181.14 347.812 1177.89 340.721 1174.67C341.117 1168.25 341.569 1161.9 342.049 1155.63ZM339.195 953.341C340.777 949.329 342.36 945.402 343.998 941.531C345.75 941.447 347.473 941.305 349.225 941.249C348.038 945.43 346.88 949.668 345.722 953.962C343.546 953.765 341.343 953.51 339.195 953.341ZM344.648 1125.96C345.185 1120.4 345.75 1114.89 346.343 1109.46C352.446 1111.69 358.576 1113.98 364.792 1116.33C364.453 1122.15 364.142 1128.02 363.86 1133.96C357.418 1131.22 351.005 1128.56 344.648 1125.96ZM349.846 1080.76C350.468 1076.07 351.118 1071.41 351.796 1066.8C357.135 1068.44 362.532 1070.16 367.984 1071.92C367.561 1076.89 367.137 1081.89 366.77 1086.95C361.063 1084.85 355.44 1082.76 349.846 1080.76ZM356.231 1038.75C356.853 1035.19 357.474 1031.68 358.124 1028.18C362.701 1029.23 367.306 1030.38 371.968 1031.54C371.516 1035.41 371.12 1039.34 370.697 1043.24C365.837 1041.69 361.006 1040.19 356.231 1038.75ZM357.361 912.742C358.04 911.443 358.689 910.087 359.367 908.815C358.915 910.115 358.492 911.443 358.068 912.742C357.814 912.714 357.587 912.742 357.361 912.742ZM363.605 1000.38C364.707 995.182 365.865 990.012 367.052 984.955C370.64 985.463 374.228 986.029 377.873 986.622C377.053 992.074 376.262 997.612 375.499 1003.21C371.488 1002.22 367.532 1001.28 363.605 1000.38ZM374.002 957.437C375.499 951.956 377.053 946.589 378.635 941.305C380.98 941.39 383.297 941.475 385.67 941.616C384.568 947.267 383.495 952.973 382.449 958.793C379.624 958.313 376.799 957.861 374.002 957.437ZM422.172 945.204C421.324 952.069 420.562 959.019 419.827 965.998C416.55 965.263 413.357 964.613 410.108 963.935C411.295 957.211 412.538 950.572 413.809 944.074C416.578 944.441 419.375 944.808 422.172 945.204ZM419.827 916.387C421.042 911.189 422.313 906.131 423.585 901.102C425.195 901.102 426.777 901.102 428.416 901.131C427.568 906.414 426.721 911.753 425.958 917.15C423.867 916.867 421.861 916.641 419.827 916.387ZM417.143 994.335C416.578 1000.92 416.07 1007.53 415.589 1014.17C411.351 1012.92 407.142 1011.68 402.961 1010.49C403.808 1004.19 404.656 997.951 405.56 991.82C409.43 992.611 413.244 993.43 417.143 994.335ZM413.781 1043.1C413.527 1047.9 413.272 1052.7 413.046 1057.53C408.046 1055.75 403.073 1054 398.129 1052.31C398.581 1047.82 399.033 1043.35 399.514 1038.92C404.232 1040.24 408.978 1041.66 413.781 1043.1ZM411.916 1087.11C411.747 1092.85 411.577 1098.61 411.464 1104.41C405.701 1102.06 399.994 1099.77 394.315 1097.54C394.711 1092.06 395.106 1086.61 395.53 1081.24C400.955 1083.1 406.435 1085.08 411.916 1087.11ZM411.125 1185.57C411.21 1192.95 411.351 1200.32 411.493 1207.72C404.345 1204.28 397.225 1200.89 390.134 1197.55C390.247 1190.46 390.388 1183.4 390.586 1176.42C397.395 1179.41 404.204 1182.47 411.125 1185.57ZM391.631 1145.91C391.886 1139.61 392.196 1133.34 392.507 1127.15C398.61 1129.61 404.769 1132.09 411.012 1134.66C410.956 1141.25 410.928 1147.83 410.928 1154.44C404.43 1151.53 397.988 1148.68 391.631 1145.91ZM391.603 913.675C390.275 913.59 388.947 913.477 387.648 913.42C388.947 909.691 390.304 906.047 391.66 902.43C392.564 902.346 393.468 902.261 394.372 902.176C393.411 905.962 392.507 909.804 391.603 913.675ZM389.88 1228.66C397.338 1232.22 404.853 1235.83 412.368 1239.48C415.9 1349.27 425.59 1458.74 436.665 1554.38C426.043 1546.38 415.646 1538.1 405.447 1529.6C394.937 1421.54 389.682 1320.31 389.88 1228.66ZM431.495 872.907C432.569 869.404 433.671 865.929 434.772 862.51C435.027 862.482 435.253 862.453 435.507 862.425C434.801 865.9 434.094 869.432 433.416 872.963C432.738 872.935 432.117 872.935 431.495 872.907ZM462.629 903.391C462.036 909.889 461.471 916.472 460.962 923.167C458.617 922.687 456.272 922.207 453.956 921.755C454.916 915.342 455.905 909.041 456.922 902.826C458.815 903.024 460.708 903.193 462.629 903.391ZM462.008 874.885C462.996 869.912 464.013 864.996 465.059 860.165C465.822 860.137 466.584 860.109 467.347 860.109C466.697 865.109 466.104 870.138 465.511 875.252C464.352 875.139 463.194 874.998 462.008 874.885ZM460.877 1231.88C453.843 1228.38 446.864 1224.93 439.886 1221.51C439.688 1213.8 439.519 1206.14 439.406 1198.54C446.073 1201.65 452.826 1204.81 459.606 1208.03C460.002 1216 460.425 1223.94 460.877 1231.88ZM459.041 951.617C458.589 959.5 458.165 967.495 457.798 975.603C454.379 974.643 450.961 973.739 447.571 972.835C448.39 965.037 449.266 957.381 450.17 949.837C453.108 950.374 456.074 950.996 459.041 951.617ZM456.724 1004.62C456.498 1012.02 456.329 1019.54 456.216 1027.14C451.893 1025.67 447.571 1024.17 443.305 1022.76C443.813 1015.52 444.35 1008.35 444.943 1001.31C448.814 1002.39 452.769 1003.49 456.724 1004.62ZM455.877 1056.91C455.877 1059.4 455.849 1061.8 455.82 1064.32C455.82 1067.42 455.849 1070.53 455.849 1073.64C450.791 1071.63 445.762 1069.71 440.762 1067.82C440.988 1062.51 441.242 1057.25 441.496 1052.03C446.271 1053.58 451.046 1055.22 455.877 1056.91ZM456.131 1104.12C456.216 1110.51 456.357 1116.89 456.498 1123.31C450.735 1120.82 445.028 1118.36 439.349 1115.96C439.462 1109.8 439.604 1103.67 439.745 1097.62C445.169 1099.72 450.65 1101.92 456.131 1104.12ZM457.346 1154.5C457.572 1161.67 457.854 1168.88 458.137 1176.11C451.724 1173.09 445.339 1170.12 439.038 1167.24C439.01 1160.26 439.01 1153.37 439.038 1146.53C445.084 1149.1 451.187 1151.78 457.346 1154.5ZM440.875 1253.46C448.192 1257.08 455.538 1260.75 462.883 1264.43C470.568 1379.64 483.649 1494.14 497.803 1596.16C487.576 1589.86 477.49 1583.34 467.573 1576.58C453.504 1461.31 444.519 1352.66 440.875 1253.46ZM487.011 1189.84C486.672 1182.35 486.361 1174.89 486.078 1167.44C492.096 1170.2 498.17 1173 504.273 1175.85C504.809 1183.57 505.375 1191.31 505.968 1199.05C499.611 1195.91 493.283 1192.83 487.011 1189.84ZM508.595 1231.85C509.302 1240.24 510.036 1248.66 510.799 1257.05C503.849 1253.52 496.927 1249.99 490.034 1246.51C489.525 1238.35 489.045 1230.18 488.593 1222.02C492.52 1223.94 496.475 1225.86 500.43 1227.81C503.171 1229.11 505.883 1230.49 508.595 1231.85ZM500.939 1122.97C501.335 1129.89 501.73 1136.78 502.154 1143.73C496.419 1141.1 490.712 1138.51 485.061 1135.96C484.892 1129.27 484.722 1122.57 484.609 1115.9C490.005 1118.19 495.458 1120.57 500.939 1122.97ZM499.95 832.789C500.741 827.901 501.532 823.127 502.38 818.38C502.493 818.38 502.634 818.352 502.747 818.352C502.295 823.155 501.871 828.014 501.476 832.93C500.967 832.874 500.459 832.817 499.95 832.789ZM497.351 908.618C497.125 916.133 496.927 923.761 496.758 931.502C494.13 930.824 491.503 930.146 488.875 929.496C489.44 922.009 490.062 914.692 490.74 907.459C492.944 907.798 495.147 908.194 497.351 908.618ZM493.622 879.235C494.328 873.048 495.062 866.917 495.854 860.9C497.068 860.984 498.283 861.069 499.526 861.154C499.159 867.369 498.82 873.67 498.509 880.055C496.871 879.8 495.26 879.518 493.622 879.235ZM496.447 960.63C496.419 969.416 496.419 978.344 496.475 987.356C492.887 986.17 489.299 984.983 485.711 983.881C486.078 975.151 486.502 966.619 486.982 958.144C490.147 958.963 493.283 959.754 496.447 960.63ZM496.871 1017.25C497.04 1025.44 497.238 1033.72 497.464 1042.11C493.057 1040.41 488.649 1038.75 484.298 1037.14C484.411 1029.06 484.581 1021.12 484.779 1013.24C488.791 1014.53 492.831 1015.86 496.871 1017.25ZM498.538 1072.82C498.792 1079.01 499.046 1085.22 499.329 1091.47C494.243 1089.29 489.214 1087.2 484.157 1085.11C484.101 1079.15 484.101 1073.19 484.101 1067.25C488.875 1069.06 493.706 1070.9 498.538 1072.82ZM492.237 1279.26C499.47 1282.93 506.702 1286.63 513.963 1290.36C525.631 1409.5 541.763 1526.77 557.98 1629.81C548.148 1624.87 538.458 1619.72 528.88 1614.38C514.359 1512.37 500.572 1396.42 492.237 1279.26ZM532.186 865.307C532.158 872.54 532.186 879.885 532.242 887.315C530.349 886.863 528.485 886.383 526.62 885.931C526.959 878.698 527.326 871.579 527.75 864.544C529.191 864.798 530.688 865.053 532.186 865.307ZM529.7 836.236C530.18 830.161 530.717 824.172 531.282 818.239C531.819 818.267 532.355 818.295 532.892 818.324C532.723 824.341 532.581 830.472 532.468 836.631C531.536 836.518 530.632 836.377 529.7 836.236ZM532.638 916.556C532.807 924.947 533.033 933.451 533.288 942.068C530.491 941.192 527.722 940.345 524.953 939.497C525.095 931.135 525.264 922.857 525.49 914.748C527.863 915.313 530.236 915.935 532.638 916.556ZM534.361 972.157C534.757 981.706 535.209 991.396 535.717 1001.2C532.073 999.844 528.4 998.431 524.784 997.132C524.671 987.611 524.643 978.231 524.671 968.992C527.891 969.981 531.141 971.083 534.361 972.157ZM563.348 821.46C563.517 828.523 563.715 835.67 563.97 842.846C562.783 842.564 561.625 842.338 560.466 842.056C560.579 834.964 560.721 827.986 560.89 821.092C561.709 821.205 562.529 821.318 563.348 821.46ZM561.907 792.671C562.161 787.105 562.444 781.596 562.726 776.171C562.726 781.681 562.783 787.218 562.839 792.812C562.529 792.755 562.218 792.699 561.907 792.671ZM565.156 872.201C565.523 880.337 565.947 888.53 566.399 896.78C564.422 896.187 562.444 895.593 560.494 895C560.381 886.892 560.325 878.896 560.325 871.014C561.907 871.381 563.546 871.805 565.156 872.201ZM623.44 1097.03C619.315 1095.05 615.219 1093.1 611.122 1091.15C610.049 1081.32 609.032 1071.6 608.043 1061.97C611.829 1063.69 615.614 1065.42 619.4 1067.2C620.728 1077.03 622.056 1086.97 623.44 1097.03ZM619.429 781.991C619.457 781.991 619.485 781.991 619.513 782.02C620.276 789.732 621.067 797.558 621.886 805.469C621.547 805.356 621.18 805.271 620.841 805.158C620.304 797.304 619.852 789.563 619.429 781.991ZM681.216 1289.2C679.747 1280.33 678.306 1271.57 676.865 1262.87C681.894 1265.53 686.923 1268.18 691.952 1270.87C693.59 1279.71 695.229 1288.61 696.924 1297.59C691.698 1294.8 686.443 1292 681.216 1289.2ZM703.705 1333.28C705.485 1342.66 707.321 1352.09 709.157 1361.58C703.422 1358.5 697.715 1355.43 692.008 1352.37C690.37 1342.97 688.759 1333.64 687.177 1324.43C692.658 1327.37 698.167 1330.31 703.705 1333.28ZM671.243 1227.98C669.915 1219.67 668.616 1211.42 667.372 1203.29C671.921 1205.63 676.441 1207.98 680.99 1210.35C682.459 1218.66 683.956 1227.05 685.482 1235.49C680.736 1232.95 675.989 1230.47 671.243 1227.98ZM662.117 1168.79C660.959 1161.05 659.829 1153.39 658.699 1145.79C662.739 1147.83 666.807 1149.92 670.847 1151.95C672.175 1159.69 673.503 1167.49 674.859 1175.32C670.593 1173.14 666.355 1170.97 662.117 1168.79ZM636.549 1187.47C637.764 1195.52 639.035 1203.65 640.307 1211.82C635.08 1209.14 629.91 1206.45 624.712 1203.8C623.666 1195.8 622.649 1187.83 621.632 1179.95C626.576 1182.44 631.549 1184.95 636.549 1187.47ZM617.451 1146.3C616.547 1138.9 615.699 1131.56 614.852 1124.24C619.287 1126.36 623.695 1128.48 628.158 1130.65C629.232 1138.14 630.334 1145.68 631.436 1153.28C626.774 1150.94 622.112 1148.59 617.451 1146.3ZM645.76 1246.51C647.144 1255.16 648.557 1263.89 649.997 1272.67C644.262 1269.65 638.527 1266.6 632.82 1263.61C631.605 1254.99 630.419 1246.43 629.26 1237.92C634.741 1240.78 640.25 1243.63 645.76 1246.51ZM655.817 1307.68C657.371 1316.89 658.925 1326.16 660.535 1335.51C654.292 1332.17 648.048 1328.84 641.832 1325.53C640.448 1316.35 639.092 1307.23 637.764 1298.16C643.782 1301.35 649.771 1304.49 655.817 1307.68ZM653.811 1111.81C652.37 1101.55 650.958 1091.41 649.602 1081.44C653.049 1083.1 656.495 1084.77 659.97 1086.46C661.609 1096.66 663.304 1106.98 665.027 1117.37C661.27 1115.51 657.541 1113.67 653.811 1111.81ZM645.194 1048.04C643.725 1036.74 642.341 1025.64 640.985 1014.7C643.782 1015.98 646.607 1017.28 649.404 1018.57C651.071 1029.76 652.823 1041.09 654.602 1052.51C651.466 1051.01 648.33 1049.51 645.194 1048.04ZM637.086 982.017C635.9 971.676 634.741 961.506 633.668 951.533C635.787 952.437 637.962 953.341 640.081 954.245C640.363 956.364 640.646 958.454 640.957 960.545C642.087 968.71 643.273 976.988 644.488 985.322C642.03 984.192 639.572 983.09 637.086 982.017ZM630.362 919.636C629.401 910.171 628.526 900.876 627.678 891.751C629.147 892.288 630.588 892.796 632.057 893.361C633.244 902.713 634.459 912.206 635.73 921.811C633.922 921.077 632.142 920.342 630.362 919.636ZM626.576 861.267C626.011 861.069 625.474 860.9 624.909 860.702C624.203 852.057 623.525 843.581 622.904 835.247C623.666 835.473 624.401 835.727 625.164 835.953C626.124 844.485 627.113 853.102 628.158 861.86C627.65 861.662 627.113 861.465 626.576 861.267ZM606.856 1281.94C608.156 1290.98 609.455 1300.02 610.812 1309.06C604.314 1305.65 597.844 1302.23 591.402 1298.84C590.3 1289.97 589.227 1281.09 588.182 1272.22C594.369 1275.42 600.613 1278.66 606.856 1281.94ZM584.226 1238.38C583.294 1230.1 582.39 1221.82 581.486 1213.51C587.165 1216.37 592.871 1219.28 598.578 1222.19C599.708 1230.64 600.867 1239.08 602.025 1247.56C596.092 1244.51 590.131 1241.43 584.226 1238.38ZM604.85 1029.57C603.833 1018.8 602.844 1008.15 601.94 997.64C604.992 998.911 608.071 1000.24 611.151 1001.54C612.422 1012.27 613.778 1023.18 615.162 1034.17C611.716 1032.64 608.269 1031.09 604.85 1029.57ZM599.369 966.026C598.607 956.251 597.9 946.588 597.222 937.096C598.861 937.689 600.471 938.282 602.082 938.904C602.788 939.186 603.523 939.469 604.229 939.751C605.246 949.498 606.319 959.387 607.45 969.388C604.766 968.23 602.053 967.128 599.369 966.026ZM595.273 906.301C594.764 897.458 594.284 888.756 593.86 880.139C595.442 880.62 597.025 881.156 598.607 881.665C599.398 890.451 600.217 899.379 601.093 908.392C599.143 907.714 597.194 907.007 595.273 906.301ZM592.532 850.305C592.222 842.366 591.996 834.569 591.77 826.856C592.589 827.054 593.38 827.223 594.199 827.421C594.764 835.303 595.386 843.27 596.036 851.35C594.849 850.983 593.691 850.644 592.532 850.305ZM591.148 797.756C591.035 790.721 590.979 783.771 590.95 776.934H590.979C591.346 783.856 591.77 790.891 592.193 797.982C591.854 797.926 591.487 797.841 591.148 797.756ZM591.205 1164.89C592.165 1172.66 593.154 1180.46 594.143 1188.26C588.747 1185.55 583.379 1182.86 578.039 1180.21C577.276 1172.61 576.542 1165.01 575.807 1157.41C580.921 1159.89 586.063 1162.38 591.205 1164.89ZM572.812 1124.69C572.191 1117.68 571.598 1110.71 571.033 1103.73C575.581 1105.79 580.158 1107.88 584.735 1110.03C585.554 1117.2 586.373 1124.38 587.193 1131.58C582.39 1129.27 577.587 1126.95 572.812 1124.69ZM568.518 1071.58C567.84 1062.28 567.19 1053.04 566.569 1043.8C567.614 1044.23 568.631 1044.65 569.676 1045.08C572.53 1046.29 575.412 1047.53 578.265 1048.75C579.197 1058.21 580.186 1067.71 581.175 1077.25C576.937 1075.39 572.699 1073.47 568.518 1071.58ZM564.648 1012.47C564.083 1002.27 563.546 992.188 563.094 982.271C566.23 983.429 569.366 984.588 572.53 985.831C573.378 996.086 574.282 1006.45 575.214 1016.85C571.711 1015.35 568.179 1013.89 564.648 1012.47ZM561.822 951.702C561.483 942.548 561.229 933.536 561.003 924.665C563.376 925.399 565.778 926.19 568.179 926.982C568.772 936.163 569.422 945.43 570.1 954.753C567.332 953.708 564.563 952.691 561.822 951.702ZM560.975 1282.9C554.166 1279.37 547.386 1275.84 540.605 1272.34C539.786 1263.78 539.023 1255.21 538.26 1246.65C544.786 1249.93 551.341 1253.32 557.895 1256.66C558.884 1265.41 559.929 1274.17 560.975 1282.9ZM535.463 1213.68C534.813 1205.75 534.192 1197.81 533.598 1189.87C539.56 1192.75 545.521 1195.69 551.51 1198.63C552.358 1206.76 553.206 1214.87 554.11 1223.01C547.866 1219.87 541.679 1216.79 535.463 1213.68ZM531.31 1157.38C530.83 1150.2 530.378 1143.05 529.954 1135.91C531.734 1136.73 533.485 1137.49 535.265 1138.31C538.853 1139.97 542.498 1141.67 546.114 1143.36C546.792 1150.74 547.499 1158.14 548.205 1165.54C542.554 1162.8 536.932 1160.06 531.31 1157.38ZM528.231 1104.12C527.892 1097.57 527.581 1091.04 527.298 1084.52C532.045 1086.52 536.819 1088.56 541.622 1090.65C542.159 1097.4 542.696 1104.15 543.261 1110.93C538.232 1108.61 533.231 1106.35 528.231 1104.12ZM526.112 1053.44C525.999 1050.1 525.857 1046.74 525.773 1043.41C525.603 1038.04 525.49 1032.76 525.377 1027.47C529.417 1028.97 533.457 1030.53 537.525 1032.11C538.091 1041.01 538.656 1049.96 539.305 1058.95C534.87 1057.05 530.491 1055.22 526.112 1053.44ZM543.91 1305.84C550.974 1309.52 558.065 1313.22 565.184 1316.95C580.328 1436.93 598.861 1554.15 616.688 1656.42C607.365 1652.64 598.098 1648.74 588.944 1644.61C572.615 1542.68 556.115 1425.52 543.91 1305.84ZM595.697 1333.02C602.449 1336.58 609.201 1340.17 615.982 1343.79C632.99 1455.44 652.794 1568.33 673.475 1676.99C664.717 1674.19 656.015 1671.26 647.398 1668.18C629.741 1567.94 611.151 1452.19 595.697 1333.02ZM647.144 1360.37C653.642 1363.84 660.14 1367.32 666.666 1370.82C684.267 1471.15 704.778 1578.42 728.115 1692.28C720.034 1690.33 711.983 1688.24 703.987 1686.03C681.781 1570.25 662.824 1461.54 647.144 1360.37ZM698.252 1387.77C704.213 1390.97 710.174 1394.19 716.164 1397.41C734.923 1492.48 756.197 1594.18 780.127 1703.04C772.838 1701.8 765.549 1700.44 758.344 1699C735.036 1586.02 715.119 1482.5 698.252 1387.77ZM735.799 1350.54C763.797 1365.65 792.134 1381.05 820.895 1396.65C973.202 1479.37 1127.49 1563.14 1274.99 1629.81C1268.18 1633.23 1261.32 1636.56 1254.4 1639.81C1097.77 1571.07 932.406 1481.91 769.165 1393.88C759.87 1388.88 750.603 1383.88 741.337 1378.87C739.444 1369.38 737.607 1359.92 735.799 1350.54ZM834.343 1371.84C798.575 1352.43 763.515 1333.39 728.906 1314.77C727.211 1305.79 725.515 1296.86 723.848 1287.99C775.352 1315.7 828.042 1344.63 882.004 1374.3C1029.76 1455.52 1179.44 1537.74 1322.68 1603.71C1317.31 1606.9 1311.89 1610.01 1306.44 1613.08C1154.07 1545.45 993.148 1458.07 834.343 1371.84ZM895.65 1349.52C834.625 1315.99 775.239 1283.35 717.294 1252.36C715.74 1243.86 714.186 1235.41 712.689 1227.02C787.19 1266.57 864.572 1309.77 944.357 1354.35C1085.05 1432.95 1227.56 1512.48 1364.27 1577.35C1360 1580.23 1355.71 1583.05 1351.41 1585.88C1204.14 1519.09 1048.83 1433.74 895.65 1349.52ZM958.144 1329.72C871.183 1281.15 787.162 1234.22 706.389 1191.79C705.004 1183.85 703.62 1176 702.264 1168.17C796.231 1217.13 895.848 1273.89 999.166 1332.82C1133.48 1409.42 1269.54 1486.97 1400.37 1551.33C1397.15 1553.78 1393.9 1556.24 1390.66 1558.64C1250.58 1492.98 1103.36 1410.83 958.144 1329.72ZM1013.18 1308.27C902.628 1245.21 796.315 1184.58 696.303 1133.22C694.523 1122.71 692.799 1112.29 691.104 1101.98C802.446 1158.28 923.874 1229.25 1050.42 1303.22C1180.21 1379.07 1311.75 1455.89 1438.4 1520.47C1433.94 1524.35 1429.42 1528.16 1424.87 1531.92C1291.24 1466.8 1151.28 1387.04 1013.18 1308.27ZM1064.68 1278.81C930.824 1200.58 802.644 1125.68 685.567 1067.59C683.73 1055.98 681.922 1044.51 680.199 1033.15C806.26 1094.21 948.99 1179.95 1098.3 1269.65C1224.17 1345.25 1351.72 1421.85 1474.71 1487.02C1470.16 1491.49 1465.52 1495.9 1460.86 1500.25C1332.06 1435.01 1197.47 1356.41 1064.68 1278.81ZM1112.85 1245.41C956.109 1151.25 806.627 1061.46 675.113 999.392C673.531 988.684 672.006 978.118 670.537 967.636C808.238 1030.44 971.563 1131.5 1143.03 1237.61C1264.37 1312.71 1387.38 1388.79 1506.15 1454.48C1502.62 1458.35 1499.06 1462.19 1495.44 1465.98C1370.88 1400.37 1240.98 1322.37 1112.85 1245.41ZM1157.89 1213.63C978.937 1102.88 808.774 997.584 665.932 934.638C664.604 924.75 663.304 915.003 662.061 905.34C808.181 966.591 991.594 1083.78 1184.73 1207.13C1301.18 1281.52 1419.22 1356.89 1533.47 1422.95C1530.76 1426.25 1527.99 1429.5 1525.22 1432.75C1405.4 1366.75 1280.78 1289.68 1157.89 1213.63ZM1199.93 1183.34C999.25 1055.13 808.972 933.592 657.993 873.161C656.891 864.036 655.817 855.051 654.772 846.152C805.893 902.261 1009.05 1036.37 1223.54 1177.97C1334.91 1251.51 1447.84 1326.01 1557.37 1392.35C1555.31 1395.12 1553.22 1397.83 1551.13 1400.57C1436.37 1334.32 1317.31 1258.32 1199.93 1183.34ZM1239.14 1154.41C1017.08 1007.78 807.051 869.149 651.297 814.877C650.393 806.43 649.517 798.123 648.698 789.874C801.288 836.942 1024.03 989.023 1259.76 1150.03C1366.02 1222.61 1473.75 1296.15 1578.5 1362.57C1576.98 1364.83 1575.4 1367.07 1573.84 1369.3C1464.22 1302.99 1350.91 1228.21 1239.14 1154.41ZM1275.7 1126.72C1035.81 962.89 809.255 808.125 652.314 761.424C650.139 760.774 647.963 760.153 645.788 759.559C645.081 751.762 644.403 744.049 643.782 736.449C647.878 737.353 652.031 738.342 656.213 739.444C807.249 779.42 1043.44 946.419 1293.53 1123.19C1394.7 1194.73 1497.25 1267.19 1597.24 1333.5C1596.13 1335.31 1595 1337.09 1593.87 1338.9C1489.45 1272.67 1381.84 1199.19 1275.7 1126.72ZM1309.83 1100.11C1057.62 921.811 819.397 753.4 663.445 712.124C656.043 710.174 648.726 708.508 641.522 707.095C641.013 699.919 640.533 692.856 640.081 685.878C648.839 686.838 657.795 688.307 667.062 690.426C815.357 724.244 1062.93 905.453 1325.05 1097.26C1421.2 1167.63 1518.67 1238.91 1613.88 1304.97C1613.11 1306.35 1612.35 1307.74 1611.56 1309.12C1512.34 1243.24 1410.4 1171.19 1309.83 1100.11ZM1341.75 1074.46C1077.2 880.874 827.336 697.998 673.362 662.88C661.439 660.168 649.8 658.332 638.47 657.315C638.16 650.817 637.849 644.432 637.595 638.131C650.054 637.651 663.106 638.64 676.865 641.211C821.403 668.276 1080.45 864.488 1354.69 1072.23C1445.92 1141.33 1538.33 1211.31 1628.88 1276.88C1628.37 1277.9 1627.89 1278.92 1627.38 1279.91C1533.24 1214.56 1436.88 1144.07 1341.75 1074.46ZM1371.76 1049.71C1094.77 839.908 833.156 641.719 682.092 613.439C666.355 610.501 651.212 609.342 636.719 609.936C636.578 604.342 636.464 598.804 636.408 593.352C651.579 589.651 667.966 589.057 685.708 591.544C825.556 611.292 1096.18 823.437 1382.72 1048.01C1469.03 1115.68 1556.47 1184.19 1642.33 1249.06C1642.02 1249.73 1641.7 1250.38 1641.39 1251.06C1552.37 1186.48 1461.48 1117.66 1371.76 1049.71ZM1400.12 1025.81C1110.54 798.801 836.998 584.396 689.635 563.574C670.819 560.918 653.02 561.229 636.267 564.478C636.295 560.184 636.352 555.974 636.436 551.793C653.359 542.837 672.232 539.334 693.449 541.227C827.732 553.177 1110.22 782.217 1409.3 1024.68C1490.72 1090.7 1573.19 1157.52 1654.36 1221.37C1654.22 1221.74 1654.08 1222.08 1653.94 1222.44C1570 1158.9 1484.51 1091.95 1400.12 1025.81ZM708.988 383.89C758.712 377.901 856.436 432.71 1007.7 551.397C1145.94 659.857 1309.32 805.893 1482.31 960.517C1517.99 992.414 1553.93 1024.51 1589.83 1056.49C1552.31 1024.17 1514.77 991.679 1477.5 959.387C1133.39 661.439 836.292 404.119 704.27 409.374C686.866 410.052 670.932 414.826 656.58 423.613C658.643 420.053 660.761 416.804 662.909 413.781C675.763 395.841 690.822 386.066 708.988 383.89ZM665.96 371.007C668.333 366.063 670.847 361.486 673.503 357.333C683.872 341.116 695.992 331.709 710.542 328.573C755.717 318.826 856.69 377.251 1010.75 502.182C1153.7 618.129 1324.18 775.324 1504.68 941.757C1514.29 950.629 1523.92 959.5 1533.56 968.371C1522.73 958.709 1511.94 949.046 1501.15 939.412C1141.7 618.157 831.263 340.721 705.598 355.836C691.133 357.559 677.882 362.673 665.96 371.007ZM705.4 437.598C826.15 432.795 1147.89 711.361 1459.03 980.745C1517.14 1031.06 1575.85 1081.89 1634.22 1131.78C1573.84 1081.94 1513.07 1031.01 1452.87 980.547C1293.5 846.971 1142.97 720.825 1012.61 625.022C863.527 515.461 764.475 463.561 700.936 461.725C680.114 461.132 661.016 465.511 643.81 474.806C645.251 472.743 646.72 470.737 648.246 468.816C664.067 448.701 682.77 438.502 705.4 437.598ZM700.117 489.949C756.875 491.616 853.611 543.232 995.888 647.794C1125.51 743.032 1275.7 868.923 1434.7 1002.19C1511.24 1066.35 1588.76 1131.27 1665.18 1193.79C1665.18 1193.82 1665.15 1193.88 1665.15 1193.91C1586.3 1131.78 1506.21 1066.86 1427.1 1002.73C1124.58 757.44 838.835 525.773 695.964 513.059C674.944 511.195 655.393 513.681 637.453 520.405C637.566 518.201 637.679 516.026 637.792 513.85C655.45 497.097 675.933 489.271 700.117 489.949ZM916.5 118.292C1357.35 118.292 1714.71 475.653 1714.71 916.5C1714.71 972.835 1708.83 1027.79 1697.73 1080.81C1639.81 1027.95 1581.47 974.191 1523.81 920.992C1342.97 754.248 1172.15 596.742 1028.52 480.23C860.702 344.111 760.774 288.822 704.552 300.942C682.6 305.688 664.123 319.532 649.687 342.105C589.227 436.609 614.823 621.886 377.844 832.902C298.484 903.56 242.291 937.943 121.597 989.08C119.45 965.15 118.263 940.966 118.263 916.472C118.292 475.653 475.653 118.292 916.5 118.292ZM132.785 1056.94C133.181 1056.38 133.576 1055.84 133.972 1055.27C136.966 1055.61 139.961 1055.95 143.012 1056.35C142.589 1057.22 142.165 1058.07 141.741 1058.95C138.718 1058.27 135.752 1057.59 132.785 1056.94ZM146.629 1127.85C152.533 1129.8 158.466 1131.81 164.512 1133.87C162.054 1143.84 159.822 1154.1 157.647 1164.55C153.692 1152.43 150.019 1140.2 146.629 1127.85ZM174.655 1096.55C173.666 1099.83 172.705 1103.13 171.773 1106.47C165.953 1104.46 160.161 1102.51 154.398 1100.59C155.556 1097.71 156.715 1094.86 157.901 1092.03C163.41 1093.44 169.004 1094.97 174.655 1096.55ZM169.795 1065.87C170.643 1064.15 171.519 1062.45 172.366 1060.76C176.745 1061.52 181.209 1062.34 185.673 1063.21C184.91 1065.3 184.176 1067.42 183.441 1069.54C178.836 1068.27 174.288 1067.06 169.795 1065.87ZM181.351 1190.94C184.345 1174.53 187.679 1158.71 191.352 1143.48C198.471 1146.11 205.647 1148.82 212.852 1151.59C212.089 1156.08 211.354 1160.6 210.648 1165.18C205.647 1197.3 201.805 1231.2 199.121 1266.85C191.182 1250.64 183.808 1234.14 176.971 1217.33C178.356 1208.37 179.797 1199.56 181.351 1190.94ZM186.747 1034.93C186.916 1034.68 187.057 1034.4 187.227 1034.14C190.391 1034.34 193.555 1034.59 196.748 1034.85C196.494 1035.47 196.239 1036.09 195.985 1036.71C192.877 1036.09 189.798 1035.5 186.747 1034.93ZM229.577 1072.99C228.729 1076.18 227.938 1079.4 227.119 1082.65C221.582 1080.87 216.101 1079.15 210.648 1077.51C211.637 1074.71 212.626 1071.94 213.643 1069.17C218.898 1070.36 224.209 1071.63 229.577 1072.99ZM224.124 1042.84C224.802 1041.26 225.48 1039.65 226.187 1038.1C230.425 1038.69 234.691 1039.34 239.013 1040.05C238.392 1042.05 237.77 1044.03 237.149 1046.04C232.798 1044.91 228.447 1043.83 224.124 1042.84ZM220.678 1110.45C219.773 1114.69 218.898 1118.95 218.022 1123.28C211.496 1120.79 204.998 1118.36 198.528 1115.99C199.63 1112.12 200.732 1108.3 201.862 1104.52C208.077 1106.41 214.349 1108.39 220.678 1110.45ZM239.663 1162.1C246.98 1165.03 254.326 1168.06 261.7 1171.14C255.513 1228.86 252.546 1291.94 252.8 1360.03C242.884 1345.23 233.448 1330.08 224.52 1314.6C227.006 1259.62 232.035 1208.68 239.663 1162.1ZM256.784 1080.25C262.462 1081.86 268.169 1083.5 273.961 1085.25C273.198 1089.4 272.464 1093.61 271.758 1097.85C265.768 1095.7 259.807 1093.58 253.93 1091.58C254.863 1087.74 255.795 1083.98 256.784 1080.25ZM254.637 984.305C255.032 983.684 255.428 983.034 255.823 982.412C257.321 982.243 258.818 982.017 260.344 981.847C259.948 982.751 259.581 983.683 259.185 984.588C257.688 984.503 256.134 984.39 254.637 984.305ZM324.561 1058.86C323.967 1062.96 323.374 1067.14 322.809 1071.32C317.356 1069.49 311.989 1067.73 306.621 1065.98C307.412 1062.2 308.203 1058.44 309.05 1054.71C314.164 1056.07 319.334 1057.42 324.561 1058.86ZM315.548 1027.39C316.17 1024.9 316.848 1022.47 317.498 1020.04C321.82 1020.78 326.199 1021.54 330.607 1022.39C330.098 1025.24 329.561 1028.1 329.081 1030.98C324.504 1029.73 320.012 1028.52 315.548 1027.39ZM309.7 951.73C308.655 951.702 307.638 951.73 306.592 951.702C307.864 949.47 309.135 947.238 310.406 945.063C311.056 944.95 311.706 944.837 312.384 944.724C311.48 947.04 310.576 949.385 309.7 951.73ZM319.249 1099.83C318.684 1104.86 318.119 1109.94 317.582 1115.08C311.282 1112.63 305.067 1110.2 298.908 1107.85C299.671 1103.13 300.462 1098.44 301.281 1093.81C307.214 1095.73 313.203 1097.74 319.249 1099.83ZM314.842 1144.58C314.362 1150.51 313.91 1156.5 313.458 1162.52C306.423 1159.44 299.388 1156.36 292.41 1153.39C292.636 1151.67 292.834 1149.92 293.031 1148.2C293.512 1144.33 294.048 1140.51 294.557 1136.7C301.281 1139.24 308.005 1141.87 314.842 1144.58ZM297.269 988.232C294.444 987.865 291.619 987.498 288.822 987.187C289.895 984.757 290.997 982.356 292.127 979.954C294.698 979.898 297.269 979.841 299.897 979.841C299.021 982.61 298.145 985.407 297.269 988.232ZM289.33 1015.92C288.907 1017.56 288.454 1019.17 288.031 1020.81C284.047 1019.93 280.092 1019.06 276.165 1018.26C276.617 1017.05 277.069 1015.78 277.521 1014.56C281.448 1014.96 285.403 1015.44 289.33 1015.92ZM281.504 1048.1C280.798 1051.23 280.092 1054.4 279.414 1057.59C274.385 1056.09 269.384 1054.65 264.44 1053.27C265.288 1050.53 266.107 1047.79 266.983 1045.08C271.757 1046.01 276.589 1047 281.504 1048.1ZM267.265 1126.47C266.531 1131.58 265.825 1136.75 265.146 1141.95C258.309 1139.13 251.501 1136.36 244.72 1133.65C245.652 1128.87 246.585 1124.13 247.574 1119.46C254.072 1121.72 260.626 1124.07 267.265 1126.47ZM248.054 1013.04C246.811 1012.84 245.511 1012.59 244.268 1012.39C245.596 1012.42 246.896 1012.47 248.223 1012.53C248.167 1012.7 248.11 1012.87 248.054 1013.04ZM289.133 1182.75C296.591 1185.97 304.078 1189.25 311.593 1192.58C307.638 1267.42 308.062 1350.09 312.808 1438.74C302.016 1426.28 291.647 1413.43 281.617 1400.32C279.979 1321.64 282.465 1248.97 289.133 1182.75ZM325.408 992.583C326.651 988.628 327.895 984.729 329.194 980.915C332.415 981.141 335.636 981.395 338.885 981.678C337.924 985.915 336.992 990.182 336.059 994.504C332.5 993.798 328.968 993.205 325.408 992.583ZM342.84 1471.46C336.455 1374.35 335.184 1285.16 338.998 1204.9C346.513 1208.34 354.084 1211.82 361.684 1215.38C361.006 1302.99 365.329 1399.5 374.511 1502.45C363.69 1492.42 353.124 1482.08 342.84 1471.46ZM810.046 1707.62C787.133 1603.62 766.622 1506.21 748.4 1414.78C750.829 1416.11 753.287 1417.41 755.717 1418.74C911.273 1502.62 1068.75 1587.52 1219.42 1655.12C1125.99 1693.49 1023.72 1714.68 916.472 1714.68C880.394 1714.71 844.881 1712.28 810.046 1707.62Z" fill="url(#paint0_linear_80_4)"/>
<defs>
<linearGradient id="paint0_linear_80_4" x1="122.645" y1="458.167" x2="1956.18" y2="1523.92" gradientUnits="userSpaceOnUse">
<stop offset="6.52782e-07" stop-color="#4433D8"/>
<stop offset="0.523444" stop-color="#8294FF"/>
<stop offset="1" stop-color="#60C699"/>
</linearGradient>
</defs>
</svg>
